<svg width="26" height="26" viewBox="0 0 26 26" fill="none" xmlns="http://www.w3.org/2000/svg">
<g clip-path="url(#clip0_177_217)">
<path d="M12.086 0.0304203C11.9895 0.0405769 11.6899 0.0761242 11.4258 0.101515C9.75005 0.284327 7.89653 0.914015 6.39849 1.80776C4.49419 2.94526 2.94536 4.49409 1.80786 6.39839C0.919189 7.8812 0.330127 9.60777 0.0914551 11.4257C0.0102051 12.0503 0.0102051 13.9496 0.0914551 14.5742C0.507861 17.7378 1.89927 20.414 4.25552 22.6027C5.55552 23.8164 7.17544 24.7609 8.93755 25.3398C10.329 25.8019 11.4309 25.9695 13 25.9695C14.1579 25.9695 14.6707 25.9238 15.6915 25.7156C19.1903 24.9996 22.3133 22.755 24.1922 19.6015C25.0809 18.1187 25.67 16.3921 25.9086 14.5742C25.9899 13.9496 25.9899 12.0503 25.9086 11.4257C25.67 9.60777 25.0809 7.8812 24.1922 6.39839C23.0547 4.49409 21.5059 2.94526 19.6016 1.80776C18.134 0.929249 16.3821 0.33003 14.625 0.101515C14.1782 0.0405769 12.4008 -0.00512695 12.086 0.0304203ZM8.71411 7.08901C8.93755 7.16519 9.1813 7.3937 10.984 9.18628L13 11.1921L15.0211 9.1812C16.9 7.31245 17.0575 7.16519 17.3114 7.08394C18.3372 6.74878 19.2512 7.68316 18.911 8.71401C18.8348 8.93745 18.6063 9.1812 16.8137 10.9789L14.8079 13L16.8137 15.016C18.6063 16.8187 18.8348 17.0625 18.911 17.2859C19.2512 18.3167 18.3372 19.2511 17.3114 18.916C17.0575 18.8347 16.9 18.6875 15.0211 16.8187L13 14.8078L10.984 16.8136C9.1813 18.6062 8.93755 18.8347 8.71411 18.9109C7.68325 19.2511 6.74888 18.3371 7.08403 17.3113C7.16528 17.0574 7.31255 16.9 9.1813 15.016L11.1922 13L9.1813 10.9789C7.31255 9.09995 7.16528 8.94253 7.08403 8.68862C6.74888 7.66284 7.68325 6.74878 8.71411 7.08901Z" fill="#83C068"/>
</g>
<defs>
<clipPath id="clip0_177_217">
<rect width="26" height="26" fill="white"/>
</clipPath>
</defs>
</svg>
