<svg width="151" height="189" viewBox="0 0 151 189" fill="none" xmlns="http://www.w3.org/2000/svg">
<path fill-rule="evenodd" clip-rule="evenodd" d="M71.3678 182.52C75.0974 182.52 141.738 111.224 141.738 72.308C141.738 33.3921 110.232 1.8446 71.3678 1.8446C32.5034 1.8446 0.997681 33.3921 0.997681 72.308C0.997681 111.224 67.6383 182.52 71.3678 182.52ZM71.3679 107.551C91.0722 107.551 107.046 91.5565 107.046 71.8261C107.046 52.0957 91.0722 36.1011 71.3679 36.1011C51.6637 36.1011 35.6903 52.0957 35.6903 71.8261C35.6903 91.5565 51.6637 107.551 71.3679 107.551Z" fill="#71A873"/>
<path fill-rule="evenodd" clip-rule="evenodd" d="M0.997681 72.308C0.997681 111.224 67.6383 182.52 71.3678 182.52V107.551C51.6636 107.551 35.6903 91.5564 35.6903 71.8261C35.6903 52.0958 51.6636 36.1012 71.3678 36.1011V1.8446C32.5034 1.8446 0.997681 33.3921 0.997681 72.308Z" fill="#D2EBC7"/>
</svg>
