<svg width="141" height="182" viewBox="0 0 141 182" fill="none" xmlns="http://www.w3.org/2000/svg">
<path d="M140.238 71.308C140.238 80.9144 136.119 92.5797 129.823 104.716C123.535 116.839 115.106 129.375 106.552 140.706C98.0001 152.036 89.3314 162.151 82.5702 169.432C79.1891 173.073 76.2891 176 74.1219 178.014C73.0373 179.023 72.1433 179.795 71.4683 180.313C71.13 180.573 70.8564 180.761 70.6476 180.882C70.5432 180.942 70.4638 180.98 70.407 181.002C70.39 181.009 70.377 181.013 70.3678 181.016C70.3586 181.013 70.3456 181.009 70.3286 181.002C70.2718 180.98 70.1924 180.942 70.088 180.882C69.8792 180.761 69.6057 180.573 69.2673 180.313C68.5923 179.795 67.6983 179.023 66.6137 178.014C64.4466 176 61.5465 173.073 58.1655 169.432C51.4043 162.151 42.7356 152.036 34.1832 140.706C25.6299 129.375 17.2008 116.839 10.9124 104.716C4.6171 92.5797 0.497681 80.9144 0.497681 71.308C0.497681 32.6676 31.7802 1.3446 70.3678 1.3446C108.955 1.3446 140.238 32.6676 140.238 71.308ZM70.3679 107.051C90.3489 107.051 106.546 90.832 106.546 70.8261C106.546 50.8202 90.3489 34.6011 70.3679 34.6011C50.387 34.6011 34.1903 50.8202 34.1903 70.8261C34.1903 90.832 50.3869 107.051 70.3679 107.051Z" fill="#71A873" stroke="#2D5B19"/>
</svg>
