<svg width="152" height="189" viewBox="0 0 152 189" fill="none" xmlns="http://www.w3.org/2000/svg">
<path fill-rule="evenodd" clip-rule="evenodd" d="M71.8404 182.52C75.5947 182.52 142.677 111.224 142.677 72.3079C142.677 33.392 110.962 1.84454 71.8404 1.84454C32.7187 1.84454 1.00427 33.392 1.00427 72.3079C1.00427 111.224 68.0862 182.52 71.8404 182.52ZM71.8405 107.551C91.6753 107.551 107.755 91.5564 107.755 71.826C107.755 52.0957 91.6753 36.1011 71.8405 36.1011C52.0059 36.1011 35.9266 52.0957 35.9266 71.826C35.9266 91.5564 52.0059 107.551 71.8405 107.551Z" fill="#EF1D1D" fill-opacity="0.65"/>
<path fill-rule="evenodd" clip-rule="evenodd" d="M71.8404 182.52C75.5947 182.52 142.677 111.224 142.677 72.3078C142.677 33.392 110.962 1.84448 71.8404 1.84448C32.7187 1.84448 1.00427 33.392 1.00427 72.3078C1.00427 111.224 68.0862 182.52 71.8404 182.52ZM71.8405 107.551C91.6753 107.551 107.755 91.5564 107.755 71.826C107.755 52.0956 91.6753 36.101 71.8405 36.101C52.0059 36.101 35.9266 52.0956 35.9266 71.826C35.9266 91.5564 52.0059 107.551 71.8405 107.551Z" fill="#EF1D1D" fill-opacity="0.65"/>
<path fill-rule="evenodd" clip-rule="evenodd" d="M1.00427 72.3079C1.00427 111.224 68.0862 182.52 71.8404 182.52V107.551C52.0058 107.55 35.9266 91.5563 35.9266 71.826C35.9266 52.0958 52.0058 36.1012 71.8404 36.1011V1.84454C32.7187 1.84454 1.00427 33.392 1.00427 72.3079Z" fill="#F88D8D"/>
</svg>
