<svg width="133" height="134" viewBox="0 0 133 134" fill="none" xmlns="http://www.w3.org/2000/svg">
<path d="M30 68.8C30 66.3 37.5 45.25 39.15 43.15C39.4 42.8 40.45 42.5 41.45 42.5H43.3L46.15 49.65C50.5 60.65 52 65.25 52 67.65V69.85L47.15 70.15C44.45 70.3 39.5 70.5 36.15 70.5L30 70.55V68.8Z" fill="#83BF68"/>
<path d="M85.45 84.65C81.9 76.5 77 62.75 77 60.9C77 60.15 77.2 59.45 77.5 59.25C77.75 59.1 82.7 58.85 88.5 58.65L99 58.35V60.65C99 63.1 95.55 73.5 91.9 82.15C89.85 86.9 89.8 87 88.15 87C86.6 87 86.35 86.8 85.45 84.65Z" fill="#83BF68"/>
<path d="M15.5 106.7C15.5 104.75 15.95 104.8 17.5 107L18.55 108.5H17.05C15.6 108.5 15.5 108.35 15.5 106.7Z" fill="#83BF68"/>
<path d="M89.15 7.75C87 6.85 87.05 6 89.25 6C90.8 6 91 6.15 91 7.25C91 7.95 90.95 8.5 90.9 8.5C90.8 8.45 90 8.15 89.15 7.75Z" fill="#83BF68"/>
<path d="M54.75 122.5C43.45 120.65 31.75 116.45 25.85 112.15C23 110.05 19.1 106.05 18 104.1C17.55 103.35 16.65 101.85 15.95 100.75C13.6 97.1 10.3 87.35 9.44999 81.75C7.64999 69.55 11 51 17.2 39.3C23.85 26.65 32.45 17.7 43.8 11.7C49.95 8.45 59.1 6 65.25 6C72.35 6 84.9 8.6 90.75 11.25C95.65 13.5 104.3 19.4 107 22.3C115.55 31.55 120.65 39.65 123.6 48.7L125.75 55.25V65C125.75 74.25 125.65 75 124.3 79.5C120.4 92.55 116.2 100.3 109.25 107.3C101.5 115.15 93.6 119.15 80 122.25C74.2 123.6 62.2 123.7 54.75 122.5ZM22.65 91.3C23.2 90.85 24.3 87.7 25.75 82.3C26.95 77.7 28.1 73.75 28.2 73.55C28.55 73 47.95 72.5 51.7 72.9C54.3 73.2 54.75 73.4 55.05 74.5C59.7 91 60.35 92.3 63.7 91.8C66.05 91.4 68.4 89.8 68.75 88.35C69.25 86.45 62.75 69.95 57.7 60.2C54.45 53.9 48.05 43.25 46.15 41C42.25 36.45 39.65 37.15 35.05 43.95C33.4 46.5 32 48.6 32 48.7C32 48.8 31.15 50.35 30.1 52.05C24.6 61.2 16.65 79.1 14.85 86.35C14.4 88.2 14.45 88.65 15.3 89.55C17.25 91.75 20.9 92.6 22.65 91.3ZM90.1 90.1C90.85 89.6 92.4 87.75 93.6 86C95.55 83.1 96.8 81.05 101.5 73C104.3 68.2 109.65 56.2 112.85 47.6C114.9 42 115.05 41.3 114.45 40.15C113.7 38.75 111.95 37.75 109.45 37.25C106.7 36.75 105.8 37.9 104.3 44C103.6 46.9 102.55 50.75 102 52.55L101 55.9L90.8 56.1C85.2 56.2 79.3 56.15 77.7 56L74.8 55.75L73.85 52.75C73.35 51.1 72.25 47.3 71.35 44.3C70.1 40.1 69.45 38.65 68.45 37.9C66.8 36.65 64.25 37.05 61.95 39L60.25 40.4L60.9 42.75C62.1 47.3 67.1 59.25 71.5 68.25C78.35 82.2 84.6 91 87.65 91C88.25 91 89.35 90.6 90.1 90.1Z" fill="#83BF68"/>
<path d="M60.25 132.95C45.7 132.2 31.25 125.4 19.7 113.95C13.1 107.45 7.09998 98.15 3.59998 89C0.749983 81.65 -0.800026 66.65 0.449974 58.65C1.99997 48.6 3.54998 43.6 7.34998 36.5C15.5 21.25 27.25 10.75 43 4.59997C51.05 1.44997 62.85 -0.0500462 72.65 0.899954C83.15 1.89995 90.95 4.29996 99.2 9.04996C121.1 21.6 133.95 44.7 132.85 69.55C132.4 79.25 130.6 86.55 126.55 95.3C120.45 108.3 108.65 120.35 96.05 126.5C84.65 132.05 75.35 133.7 60.25 132.95ZM77.55 129.25C91.55 126.8 102.5 120.8 112.75 109.95C136.7 84.6 135.2 43.7 109.45 20.55C101.5 13.4 95.5 9.79996 86.35 6.74996C71.5 1.79996 55.5 2.49996 41.4 8.74996C27.05 15.15 16.8 24.8 9.99998 38.3C5.29998 47.8 3.59997 54.2 3.14997 64.5C2.29997 85.05 11.75 105 28.3 117.4C42.7 128.25 59.85 132.35 77.55 129.25Z" fill="#2D5B19"/>
<path d="M17.55 93.25C13.3 91.9 11.75 89.05 13.15 84.95C17.8 71.65 23.25 59.45 28.6 50.55C29.65 48.85 30.5 47.3 30.5 47.2C30.5 47.1 31.9 44.95 33.6 42.45C36.1 38.7 37.1 37.7 38.85 36.9C40.7 36.1 41.3 36.05 43.1 36.55C46.1 37.3 48.5 40.05 53.1 47.8C59.8 59.1 63.85 67.55 68.25 79.6C71 87.05 71.15 89.5 69.05 91.45C67.45 92.95 63.55 94.05 61.4 93.65C58.7 93.15 57.85 91.15 53.55 76C53.2 74.9 52.85 74.7 50.2 74.45C48.6 74.3 43.35 74.25 38.6 74.4C30.3 74.65 29.9 74.7 29.5 75.75C29.15 76.65 27.15 83.95 25.45 90.55C25.1 91.9 24.55 92.6 23.3 93.2C21.3 94.15 20.45 94.15 17.55 93.25ZM48.15 68.5C49.9 68.5 50.5 68.3 50.5 67.75C50.5 66.3 42.55 44.9 41.7 44.05C41.2 43.55 40.05 45.45 38.5 49.25C36.95 53.05 31.5 68.25 31.5 68.8C31.5 68.95 34.7 68.95 38.65 68.8C42.55 68.65 46.8 68.55 48.15 68.5Z" fill="#2D5B19"/>
<path d="M85.5 92.45C83.4 91.6 81.5 89.5 77.9 84C69.95 71.95 57.95 44.45 58.7 40.25C59.5 36 67.75 33.65 70.65 36.9C71.05 37.35 72.1 40.1 72.9 43C73.75 45.9 74.85 49.6 75.35 51.25L76.3 54.25L79 54.5C80.5 54.65 85.75 54.7001 90.6 54.6001L99.45 54.45L100.5 51.1001C101.05 49.2501 102.1 45.3 102.85 42.3C104.35 36.4 105.15 35.3 108.2 35.3C113.15 35.4 116.5 37.75 116.5 41.25C116.5 44.95 107.95 66.05 103 74.5C98.3 82.5 97.05 84.6 95.1 87.5C91.95 92.25 88.9 93.8 85.5 92.45ZM90.25 81C92.45 75.85 97.5 61.7 97.5 60.65C97.5 60 96.35 59.95 88.4 60.25C83.35 60.45 79.1 60.7 78.9 60.8C78.6 61 81.1 68.55 84.15 76.25C86.6 82.6 88 85.7 88.25 85.45C88.35 85.3 89.25 83.3 90.25 81Z" fill="#2D5B19"/>
</svg>
