<svg width="539" height="115" viewBox="0 0 539 115" fill="none" xmlns="http://www.w3.org/2000/svg">
<path d="M80 113.55C80 113.15 79.15 113.1 77.4 113.3C75.95 113.45 71.6 113.35 67.75 113.05C63.35 112.75 60.7 112.75 60.6 113.05C60.4 113.6 55 113.7 55 113.15C55 112.9 50.9 112.75 45.9 112.75C38.3 112.75 36.3 112.6 34 111.8C31.3 110.9 30.25 110.6 29.25 110.55C28.7 110.5 26.8 108.95 23.35 105.65C21.6 103.95 20.9 102.9 20.7 101.45C20.5 100.4 20.2 99.5 19.95 99.5C19.7 99.5 19.5 98.7 19.5 97.75C19.5 95.35 20.75 95.45 21.4 97.9L21.9 99.75L21.95 97.5C22.15 91.2 25.6 83.35 32.35 74.1C42.05 60.8 49.7 53.1 55.25 51C55.95 50.75 56.5 50.3 56.5 50C56.5 49.7 56.05 49.7 55.25 50C54.15 50.45 54 50.35 54 49.25C54 48 54.05 48 58.05 48C61.6 48 62.5 48.2 65.15 49.55C73.05 53.55 78.95 59.4 85.75 70C87.05 72.05 88.4 73.95 88.75 74.25C89.1 74.5 90 76 90.8 77.5C91.6 79 92.35 80.35 92.5 80.5C93.55 81.55 95.1 85.95 95.1 87.8C95.05 89.35 95.25 90 95.7 90C96.55 90 96.9 91.3 97.3 96C97.55 99.15 97.45 100.2 96.5 102.7C94.95 106.8 92.05 109.8 87.7 111.8C83.75 113.65 80 114.5 80 113.55ZM61.55 101.85C62.25 100.7 64.25 97.55 65.95 94.85C69.95 88.55 74.4 79.8 75.2 76.7C75.8 74.35 75.75 74.15 74.35 71.9C73.4 70.3 72.55 69.5 71.9 69.5C70.15 69.5 65.3 74.95 63.9 78.55C62.65 81.65 62.55 81.75 60.75 81.75C59.05 81.75 58.85 81.55 57.3 78.85C55 74.65 51.85 70.75 49.55 69.2L47.55 67.9L45.8 68.95C43.55 70.35 42.3 73 42.75 75.4C43.8 81.1 48.25 89.05 55.7 98.7C57.4 100.85 58.95 102.95 59.25 103.3C59.95 104.3 60.1 104.2 61.55 101.85Z" fill="#BFC1BD"/>
<path d="M19.5 93.9C19.5 90.85 20.15 89 21.1 89C22 89 22.05 89.25 21.75 91.15C21.6 92.3 21.3 93.65 21.2 94.15C20.8 95.4 19.5 95.2 19.5 93.9Z" fill="#BFC1BD"/>
<path d="M15.25 73.4001C14.45 73.1001 13.65 72.7001 13.5 72.5501C13.35 72.3501 12.2 71.6 10.9 70.85C9.6 70.1 7.8 68.55 6.85 67.35C4.5 64.45 2 59.2001 2 57.1501C2 56.2501 1.8 55.5 1.5 55.5C1.25 55.5 1 54.7 1 53.75C1 51.35 2.25 51.4501 2.9 53.9001C3.35 55.6501 3.4 55.55 3.45 52.25C3.5 48.15 4.65 43.3001 5.95 41.5001C7.2 39.7001 9.9 38.0001 11.45 38.0001C12.65 37.9501 12.65 37.9 11.85 37.3C11.4 36.95 11 36.5 11 36.3C11 35.55 14.8 36.1 16.7 37.1C18.4 38.05 23.8 42.3001 25.75 44.2501C26.65 45.2001 29 48.4501 29 48.8001C29 49.0001 29.5 49.85 30.15 50.7C31.8 52.95 32.7 55.2001 32.05 55.4001C31.25 55.6501 31.4 57.5 32.2 57.5C33.7 57.5 33.95 62.25 32.55 65.25C31.5 67.65 28.6 70.6 25.6 72.35C23.1 73.85 17.8 74.3501 15.25 73.4001Z" fill="#BFC1BD"/>
<path d="M98.45 72.95C97.8 72.3 97.25 72.05 97.1 72.4C96.85 73.2 95.65 72.65 92.5 70.35C88.3 67.35 86.55 65.1 86.5 62.9C86.5 61.05 87.15 60.35 87.65 61.65C87.8 61.95 87.95 61.3 87.95 60.15C88.05 55.55 91.2 50.25 97.1 44.75C101.6 40.6 104.7 38.7 108.05 38.2C109.85 37.9 110.05 37.75 109.35 37.25C108.1 36.35 108.3 36 110.2 36C112.55 36 114.75 38.65 115.6 42.45C115.9 44 116.55 45.5 116.95 45.85C118.25 46.8 118 56.35 116.55 60.5C115.05 64.8 111.5 70 108.6 72.05C106.65 73.45 105.75 73.75 102.95 73.9C100 74.1 99.45 73.95 98.45 72.95Z" fill="#BFC1BD"/>
<path d="M37.05 48.45C36.1 48.15 35.05 47.65 34.8 47.25C34.5 46.9 33.65 46.5 32.95 46.3C30.65 45.8 27.05 42.1 25.45 38.6C23.4 34.1 22.2 25 23.7 25C24.5 25 25.1 26.85 24.7 28.35C24.55 28.9 24.6 29.5 24.9 29.7C25.15 29.85 25.5 27.85 25.65 24.85C26.1 17.3 28.05 12.1 32 7.85C34.7 4.9 36.3 4 39.1 3.95C40.3 3.95 40.95 3.8 40.65 3.65C39.35 3.15 40.05 2.5 41.85 2.5C43.35 2.5 44.05 2.9 45.75 4.7C51.65 10.8 55.1 18.25 56.75 28.25C56.95 29.35 57.3 30.4 57.6 30.55C59.1 31.5 58.2 38.35 56.2 41.6C53.15 46.4 42.7 50.15 37.05 48.45Z" fill="#BFC1BD"/>
<path d="M76.5 48.45C75.55 48.15 74.6 47.6 74.4 47.25C74.2 46.9 73.15 46.45 72.15 46.25C68.65 45.65 62.5499 41.45 61.0999 38.75C59.9999 36.7 59.7 31.5 60.65 31.5C61.05 31.5 61.6 32.25 61.9 33.15L62.4 34.75L62.4499 32.5C62.5999 28.3 64.6499 21.5 66.9499 17.6C70.0499 12.35 72.0499 9.65 74.3499 7.45C77.3499 4.55 78.3999 4 81.0999 3.95C82.2999 3.95 82.95 3.8 82.65 3.65C81.4 3.2 82 2.5 83.65 2.5C87.7 2.5 92.75 11.2 93.8 20.15C94 22.1 94.35 23 94.8 23C95.2 23 95.55 23.5 95.55 24.15C95.8 28.9 94.5999 38.75 93.6999 39.45C93.4499 39.6 92.85 40.55 92.3 41.5C91.05 43.8 88.15 46.85 86.25 47.8C84.35 48.75 78.8 49.15 76.5 48.45Z" fill="#BFC1BD"/>
<path d="M68.25 114C61.2 113.45 57.3 113.4 48.95 113.75C40.35 114.15 36.05 113.5 30.35 110.8C23.25 107.5 20.05 104 19.1 98.5501C17.8 91.1501 20.75 83.6001 29.9 70.8501C38.85 58.4001 46.95 50.6001 53.7 47.9001C60.5 45.2001 69.3 49.5001 78.5 59.9501C85.8 68.2501 91.25 76.7001 89.9 77.5501C88.8 78.2501 88.35 77.8501 85.7 73.7001C79.15 63.6501 73.9 57.5501 68.95 54.1501C61.75 49.2001 58.05 48.4501 52.75 51.0001C45.9 54.2501 33.85 67.9501 25.6 81.7501C19.8 91.5501 19.65 99.1001 25.2 104.5C31.25 110.4 38.8 112.15 53.75 111.15C57.05 110.95 61.1 110.9 62.75 111.1C67.75 111.7 78.1 111.65 80.35 111.05C81.5 110.75 83.05 110.15 83.85 109.75C84.6 109.35 85.5 109 85.8 109C86.85 109 92.05 103.85 92.8 102.05C93.2 101.1 93.7 98.5501 93.85 96.5001C94.1 92.9501 93.9 91.5001 92.2 85.6501C91.95 84.7001 92.1 84.5001 93.1 84.5001C94.15 84.5001 94.45 84.9501 95.4 87.6501C97.85 94.5001 96.25 103.1 91.75 107.55C89.95 109.4 84.7 112.5 83.45 112.5C83.1 112.5 82.45 112.85 82 113.25C80.9 114.25 74.95 114.55 68.25 114Z" fill="#050505"/>
<path d="M56.9 103.65C53.2 99.1 48.15 92 45.65 87.9C43.3 84 41 77.3 40.9 74.3C40.85 70 43.85 66.5 47.6 66.5C50.8 66.5 55.2 70.75 58.85 77.35C59.6 78.75 60.5 79.9 60.75 79.9C61.05 79.9 61.8 78.55 62.45 76.85C63.3 74.8 64.55 72.9 66.5 70.95C70.9 66.45 73.4 66.35 75.95 70.5C76.8 71.9 77.5 73.5 77.5 74.15C77.5 76.2 76.1 80.45 74.2 84.35C70.7 91.5 61.4 106.5 60.2 106.85C59.9 106.95 58.4 105.5 56.9 103.65Z" fill="#050505"/>
<path d="M340.1 88.9999C332.35 86.9499 329.2 83.0999 329.6 76.0999C329.9 70.0499 333 67.0499 340.4 65.4999C344.15 64.7499 351.35 65.0999 355.7 66.2499C357.3 66.6499 358.7 66.9499 358.8 66.8999C358.85 66.7999 358.8 65.7499 358.65 64.5499C358.2 61.3999 355.75 57.9999 352.8 56.5499C348.25 54.2499 343.4 54.5999 337.4 57.5999C333.1 59.6999 331.5 59.3499 331.5 56.1999C331.5 54.3999 332.3 53.7499 336.5 52.1499C342.1 49.9499 351.05 49.3499 356.9 50.7499C365.8 52.8499 370.45 58.2999 371.3 67.5999C372.1 76.6499 368.75 84.0499 362.4 87.2999C357.05 90.0499 347 90.7999 340.1 88.9999ZM353.5 83.8999C355.25 82.9999 356.05 82.1499 357.1 80.0999C358.35 77.6499 359.45 72.2999 358.85 71.6999C358.7 71.5499 357.3 71.0999 355.65 70.7499C349.75 69.2999 345.8 70.0499 343.3 72.9999C341.75 74.8999 341.3 76.4499 341.65 78.7999C342.5 84.0499 348.3 86.4999 353.5 83.8999Z" fill="#050505"/>
<path d="M511 89.3001C504.95 87.9501 500.65 84.55 498.1 79.1C496.85 76.5 496.75 75.7 496.75 70C496.75 66.4 497 62.8501 497.4 61.6501C498.8 57.0001 503.4 52.3 507.9 51C513.15 49.4 519.6 49.9501 523.95 52.3001C525.15 52.9501 526.25 53.5 526.4 53.5C526.55 53.5 526.45 50.5001 526.25 46.9001C526 43.2501 525.8 38.7 525.8 36.8C525.75 33.6 525.85 33.3 527.15 32.3C529.15 30.8 534.5 30.8 536 32.3C537.65 33.9 538.5 41.3501 538.85 56.3001C539.25 73.7001 538.25 78.7001 533.5 84.1501C529.15 89.1001 519.8 91.2001 511 89.3001ZM521.4 83.95C525.35 82 526.95 76.7001 527 65.1501V59.6L525.4 58.2C519.6 53.35 513.3 54.1501 510.2 60.1501C508.9 62.6501 508.25 68.8501 508.85 73.6501C510 83.2001 514.8 87.1 521.4 83.95Z" fill="#050505"/>
<path d="M137.25 89.05C133.85 88.2 132 86.35 132 83.7C132 81.2 137.05 68.1 141.55 59C147.25 47.35 154.05 36.6 156.3 35.6C158.2 34.7 161.05 34.9 162.9 36C167.65 38.9 179.35 60.7 185.45 78.1C187.2 82.95 187.35 84.75 186.2 86.4C184.35 89.05 178 90.2 176 88.25C175.45 87.65 174.2 84.35 173.05 80.5C171.95 76.8 170.85 73.15 170.55 72.4L170 71H159.25H148.5L147.95 72.4C147.65 73.15 146.65 76.7 145.75 80.25C143.6 88.55 143.7 88.35 141.9 88.95C140.2 89.55 139.45 89.55 137.25 89.05ZM165.45 65.5C168.1 65.5 168.1 65.5 167.75 64.15C167.4 62.7 161.7 47.3 160.25 43.8C159.55 42.15 159.3 41.95 158.8 42.55C157.75 43.7 150 64.1 150 65.75C150 65.95 152.85 65.95 156.4 65.8C159.9 65.65 163.95 65.5 165.45 65.5Z" fill="#050505"/>
<path d="M195.6 89.0001C194.95 88.7501 194.15 87.8001 193.8 86.9001C192.1 82.8001 191.4 65.7001 192.75 61.1501C193.7 57.9501 195.95 54.8501 198.55 53.2501C204.75 49.3001 218.35 48.95 225.7 52.45C228.6 53.9 231.5 57.1501 232.65 60.3001C234.45 65.3501 233.3 85.9001 231.1 88.1501C229.85 89.4001 226.3 89.7501 223.75 88.9001C220.6 87.8501 219.85 85.85 220.55 80.45C220.9 78.15 221.15 72.9001 221.2 68.7501C221.25 61.8501 221.15 61.1001 220.1 59.1501C217.15 53.6001 208.35 53.6001 205.4 59.1501C204.35 61.1001 204.25 61.8501 204.3 69.0001C204.35 73.2501 204.65 78.6001 204.95 80.9001C205.55 85.5001 205.2 86.9501 203.15 88.3001C201.65 89.2501 197.2 89.7001 195.6 89.0001Z" fill="#050505"/>
<path d="M244.7 88.8C242.2 87.7 241.95 86.15 242.6 76.85C243 70.9 243 66.9 242.6 61.8C241.95 53.55 242.35 51.95 245.2 50.75C247.95 49.6 251.1 49.8 252.65 51.2C254.5 52.9 254.75 55.4 254.7 70.75C254.65 85.5 254.35 87.65 252 88.85C250.35 89.7 246.65 89.65 244.7 88.8Z" fill="#050505"/>
<path d="M266.75 88.95C265 88.1 264.45 86.6 263.7 80.55C262.3 68.5 262.95 60.4 265.75 56C270.25 48.85 284.55 48 290.75 54.4C291.6 55.25 292.5 56 292.8 56C293.05 56 294.05 55.25 294.95 54.3C297.8 51.4 301 50.25 306.5 50.25C310.4 50.25 311.7 50.45 313.75 51.4C317 52.9 319.15 55.05 320.6 58.2C321.65 60.6 321.75 61.4 321.75 70.25C321.75 81.3 321 86.55 319.2 88.35C317.05 90.5 311.05 89.55 309.25 86.8C308.45 85.6 308.45 85.1 309.2 79.15C310.25 70.8 310.25 62.45 309.2 59.35C307.85 55.4 304.55 53.9 301.8 56.05C298.95 58.3 298.8 59.1 298.6 73.6C298.4 86.8 298.4 86.9 297.25 88C295.8 89.35 292.3 89.85 289.8 89C286.7 88 286.5 87.15 286.5 73.45C286.5 60.15 286.2 58.15 283.85 56.2C281.2 54 277.8 55.05 276.2 58.6C275.4 60.35 275.25 61.85 275.25 67.5C275.3 71.2 275.6 76.8 275.95 79.9C276.6 85.35 276.6 85.65 275.65 86.9C274 89.1 269.3 90.2 266.75 88.95Z" fill="#050505"/>
<path d="M381.9 88.95C381.4 88.7 380.75 88 380.45 87.45C377.85 82.6 377.9 37.9 380.5 33.05C382.1 30 389.75 30.75 391.4 34.1C391.9 35.2 391.9 36.8 391.2 43.1C390.3 51.75 390.45 72.85 391.5 80.6C392.2 85.8 391.7 87.25 389 88.6C387.1 89.6 383.25 89.75 381.9 88.95Z" fill="#050505"/>
<path d="M421.25 89.05C417.85 88.2 416 86.35 416 83.7C416 81.2 421.05 68.1 425.55 59C431.25 47.35 438.05 36.6 440.3 35.6C442.2 34.7 445.05 34.9 446.9 36C451.65 38.9 463.35 60.7 469.45 78.1C471.2 82.95 471.35 84.75 470.2 86.4C468.35 89.05 462 90.2 460 88.25C459.45 87.65 458.2 84.35 457.05 80.5C455.95 76.8 454.85 73.15 454.55 72.4L454 71H443.25H432.5L431.95 72.4C431.65 73.15 430.65 76.7 429.75 80.25C427.6 88.55 427.7 88.35 425.9 88.95C424.2 89.55 423.45 89.55 421.25 89.05ZM448.7 65.5H452.1L451.75 64.15C451.4 62.7 445.7 47.3 444.25 43.8C443.55 42.15 443.3 41.95 442.8 42.55C441.7 43.75 434 64.15 434 65.9C434 66.05 436.55 66 439.65 65.85C442.7 65.65 446.8 65.5 448.7 65.5Z" fill="#050505"/>
<path d="M479.25 88.8C476.6 87.65 476.4 86.45 477.1 76.85C477.55 70.25 477.55 66.65 477.1 61.35C476.45 53.4 476.65 52.45 479.6 50.95C483.55 48.95 487.55 50.1 488.6 53.65C489.3 56.1 489.5 80.7 488.85 84.7C488.25 88.2 486.75 89.5 483.4 89.5C481.95 89.45 480.05 89.15 479.25 88.8Z" fill="#050505"/>
<path d="M90.15 81.25C89.25 79.4 89.75 78.1 91.1 78.6C92.05 79 93.2 81.3 92.85 82.2C92.3 83.55 91 83.1 90.15 81.25Z" fill="#050505"/>
<path d="M402 75.9C398.85 74.2 397.65 69.95 399.4 66.5C401.45 62.3 408.55 61.8 411.2 65.6C411.75 66.35 412 67.85 412 69.85C412 72.6 411.8 73.2 410.55 74.6C409.35 75.95 408.75 76.2 406.2 76.35C404.4 76.45 402.75 76.3 402 75.9Z" fill="#050505"/>
<path d="M14.75 73.05C13.05 72.6 9.75 70.8 8.3 69.55C6.4 67.9 2.6 61.65 1.45 58.25C0.450001 55.35 0.25 53.8 0.25 49.25C0.3 44.4 0.45 43.4 1.6 41C3.55 36.85 5.75 35 9.15 34.65C11.65 34.4 12.3 34.55 15.6 36.2C21.35 39.05 28.55 46.15 30.7 51.05C31.1 52 31.8 53.6 32.25 54.7C33.1 56.6 33 59.95 32.05 61.95C29.75 66.65 28.5 68.25 25.15 70.55C23.5 71.7 17.65 73.65 16.5 73.45C16.35 73.4 15.6 73.25 14.75 73.05ZM21.05 69.8C23.8 68.65 26.9 66.15 28.35 63.9C29.6 62 29.75 61.25 29.75 57.75C29.75 54.4 29.55 53.5 28.65 52.15C28 51.3 27.5 50.45 27.5 50.25C27.5 49.9 25.15 46.65 24.25 45.75C21.75 43.25 16.75 39.4 14.55 38.35C7.5 34.9 3.15 38.65 2.6 48.65C2.15 56.55 6.25 65.45 11.95 69.1C14.5 70.7 18.2 71 21.05 69.8Z" fill="#050505"/>
<path d="M98.0001 73.2C93.2001 71.6 88.0001 67.65 86.2501 64.25C82.6501 57.05 84.8501 50.6 93.8001 42.05C97.0001 38.95 99.5501 37 101.4 36.15C108.4 32.95 112.65 34.4 115.65 41C116.95 43.8 117.15 44.85 117.15 48.5C117.15 56.4 114.35 63.65 109.25 68.8C106.45 71.65 105.95 71.95 102.65 72.7C100.65 73.15 99.0001 73.5 98.9001 73.45C98.8001 73.45 98.4001 73.3 98.0001 73.2ZM104.35 69.45C109.85 66.8 114.45 58 114.55 49.85C114.65 44.65 113.8 41.55 111.8 39.25C108.3 35.25 104.35 36.1 96.9001 42.5C89.8501 48.5 87.6501 51.9 87.1501 57.4C86.8501 60.9 87.7001 63.05 90.4001 65.8C94.8001 70.35 99.8001 71.65 104.35 69.45Z" fill="#050505"/>
<path d="M32.75 46.75C25.8 43.35 22.05 35.65 22 24.75C22 14.7 26.55 4.75001 32.55 1.70001C38.55 -1.29999 44.75 1.30001 49.85 9.00001C54 15.3 57.85 24.55 58 28.5C58.25 34.2 56.1 39.6 52.4 42.55C46 47.75 38.15 49.4 32.75 46.75ZM45.75 43.95C50.05 42.3 53.55 38.65 54.7 34.55C55.6 31.4 55.55 30.6 54.2 24.25C52.8 17.85 46.6 7.40001 42.5 4.60001C40.35 3.15001 37.4 2.30001 35.85 2.70001C32.35 3.55001 27.9 9.15001 25.8 15.25C24.65 18.65 24.2 26.45 24.95 30.7C26.15 37.55 30.3 43.6 34.7 45C37.05 45.7 42.4 45.2 45.75 43.95Z" fill="#050505"/>
<path d="M74 47.65C73.6 47.5 72.05 46.9 70.6 46.4C66.75 44.95 62.55 41.25 60.85 37.85C58.4 32.8 59.1 24.75 62.7 16.85C66.05 9.54999 70.9 3.34999 74.8 1.44999C76.65 0.549989 77.65 0.399988 80.1 0.649988C85 1.09999 88.2 3.69999 91.45 9.99999C94.3 15.55 95.15 18.9 95.1 24.75C95 35.6 91 43.65 84.3 46.5C81.85 47.55 75.45 48.25 74 47.65ZM81.85 44.9C90.2 42.7 94.7 28.7 91.2 15.9C89.85 11.1 85.95 5.29999 83 3.74999C81 2.69999 77.95 2.49999 76.4 3.29999C70.8 6.19999 63.35 18.25 62 26.6C60.95 32.9 62.05 37 65.6 40.3C70.3 44.65 76.25 46.35 81.85 44.9Z" fill="#050505"/>
<path d="M243.6 44.5C242.15 43.9 240.55 40.35 240.5 37.85C240.5 36.4 240.85 35.6 241.9 34.5C244.6 31.85 251.4 32.15 252.85 35C253.75 36.75 253.65 41.3 252.7 42.75C251.4 44.75 246.6 45.7 243.6 44.5Z" fill="#050505"/>
<path d="M478.1 44.5C476.65 43.9 475.05 40.35 475 37.85C475 36.4 475.35 35.6 476.4 34.5C479.1 31.85 485.9 32.15 487.35 35C488.15 36.55 488.2 41.2 487.45 42.6C486.35 44.6 481.1 45.7 478.1 44.5Z" fill="#050505"/>
</svg>
