<svg width="133" height="134" viewBox="0 0 133 134" fill="none" xmlns="http://www.w3.org/2000/svg">
<path d="M30 68.8C30 66.3 37.5 45.25 39.15 43.15C39.4 42.8 40.45 42.5 41.45 42.5H43.3L46.15 49.65C50.5 60.65 52 65.25 52 67.65V69.85L47.15 70.15C44.45 70.3 39.5 70.5 36.15 70.5L30 70.55V68.8Z" fill="#83BF68"/>
<path d="M85.45 84.65C81.9 76.5 77 62.75 77 60.9C77 60.15 77.2 59.45 77.5 59.25C77.75 59.1 82.7 58.85 88.5 58.65L99 58.35V60.65C99 63.1 95.55 73.5 91.9 82.15C89.85 86.9 89.8 87 88.15 87C86.6 87 86.35 86.8 85.45 84.65Z" fill="#83BF68"/>
<path d="M15.5 106.7C15.5 104.75 15.95 104.8 17.5 107L18.55 108.5H17.05C15.6 108.5 15.5 108.35 15.5 106.7Z" fill="#83BF68"/>
<path d="M89.1501 7.75C87.0001 6.85 87.0501 6 89.2501 6C90.8001 6 91.0001 6.15 91.0001 7.25C91.0001 7.95 90.9501 8.5 90.9001 8.5C90.8001 8.45 90.0001 8.15 89.1501 7.75Z" fill="#83BF68"/>
<path d="M54.7502 122.5C43.4502 120.65 31.7502 116.45 25.8502 112.15C23.0002 110.05 19.1002 106.05 18.0002 104.1C17.5502 103.35 16.6502 101.85 15.9502 100.75C13.6002 97.1 10.3002 87.35 9.45023 81.75C7.65023 69.55 11.0002 51 17.2002 39.3C23.8502 26.65 32.4502 17.7 43.8002 11.7C49.9502 8.45 59.1002 6 65.2502 6C72.3502 6 84.9002 8.6 90.7502 11.25C95.6502 13.5 104.3 19.4 107 22.3C115.55 31.55 120.65 39.65 123.6 48.7L125.75 55.25V65C125.75 74.25 125.65 75 124.3 79.5C120.4 92.55 116.2 100.3 109.25 107.3C101.5 115.15 93.6002 119.15 80.0002 122.25C74.2002 123.6 62.2002 123.7 54.7502 122.5ZM22.6502 91.3C23.2002 90.85 24.3002 87.7 25.7502 82.3C26.9502 77.7 28.1002 73.75 28.2002 73.55C28.5502 73 47.9502 72.5 51.7002 72.9C54.3002 73.2 54.7502 73.4 55.0502 74.5C59.7002 91 60.3502 92.3 63.7002 91.8C66.0502 91.4 68.4002 89.8 68.7502 88.35C69.2502 86.45 62.7502 69.95 57.7002 60.2C54.4502 53.9 48.0502 43.25 46.1502 41C42.2502 36.45 39.6502 37.15 35.0502 43.95C33.4002 46.5 32.0002 48.6 32.0002 48.7C32.0002 48.8 31.1502 50.35 30.1002 52.05C24.6002 61.2 16.6502 79.1 14.8502 86.35C14.4002 88.2 14.4502 88.65 15.3002 89.55C17.2502 91.75 20.9002 92.6 22.6502 91.3ZM90.1002 90.1C90.8502 89.6 92.4002 87.75 93.6002 86C95.5502 83.1 96.8002 81.05 101.5 73C104.3 68.2 109.65 56.2 112.85 47.6C114.9 42 115.05 41.3 114.45 40.15C113.7 38.75 111.95 37.75 109.45 37.25C106.7 36.75 105.8 37.9 104.3 44C103.6 46.9 102.55 50.75 102 52.55L101 55.9L90.8002 56.1C85.2002 56.2 79.3002 56.15 77.7002 56L74.8002 55.75L73.8502 52.75C73.3502 51.1 72.2502 47.3 71.3502 44.3C70.1002 40.1 69.4502 38.65 68.4502 37.9C66.8002 36.65 64.2502 37.05 61.9502 39L60.2502 40.4L60.9002 42.75C62.1002 47.3 67.1002 59.25 71.5002 68.25C78.3502 82.2 84.6002 91 87.6502 91C88.2502 91 89.3502 90.6 90.1002 90.1Z" fill="#83BF68"/>
<path d="M60.2501 132.95C45.7001 132.2 31.2501 125.4 19.7001 113.95C13.1001 107.45 7.10011 98.15 3.60011 89C0.750105 81.65 -0.799904 66.65 0.450096 58.65C2.0001 48.6 3.55011 43.6 7.35011 36.5C15.5001 21.25 27.2501 10.75 43.0001 4.59997C51.0501 1.44997 62.8501 -0.0500462 72.6501 0.899954C83.1501 1.89995 90.9501 4.29996 99.2001 9.04996C121.1 21.6 133.95 44.7 132.85 69.55C132.4 79.25 130.6 86.55 126.55 95.3C120.45 108.3 108.65 120.35 96.0501 126.5C84.6501 132.05 75.3501 133.7 60.2501 132.95ZM77.5501 129.25C91.5501 126.8 102.5 120.8 112.75 109.95C136.7 84.6 135.2 43.7 109.45 20.55C101.5 13.4 95.5001 9.79996 86.3501 6.74996C71.5001 1.79996 55.5001 2.49996 41.4001 8.74996C27.0501 15.15 16.8001 24.8 10.0001 38.3C5.3001 47.8 3.60009 54.2 3.15009 64.5C2.30009 85.05 11.7501 105 28.3001 117.4C42.7001 128.25 59.8501 132.35 77.5501 129.25Z" fill="#FEFFFE"/>
<path d="M17.5501 93.25C13.3001 91.9 11.7501 89.05 13.1501 84.95C17.8001 71.65 23.2501 59.45 28.6001 50.55C29.6501 48.85 30.5001 47.3 30.5001 47.2C30.5001 47.1 31.9001 44.95 33.6001 42.45C36.1001 38.7 37.1001 37.7 38.8501 36.9C40.7001 36.1 41.3001 36.05 43.1001 36.55C46.1001 37.3 48.5001 40.05 53.1001 47.8C59.8001 59.1 63.8501 67.55 68.2501 79.6C71.0001 87.05 71.1501 89.5 69.0501 91.45C67.4501 92.95 63.5501 94.05 61.4001 93.65C58.7001 93.15 57.8501 91.15 53.5501 76C53.2001 74.9 52.8501 74.7 50.2001 74.45C48.6001 74.3 43.3501 74.25 38.6001 74.4C30.3001 74.65 29.9001 74.7 29.5001 75.75C29.1501 76.65 27.1501 83.95 25.4501 90.55C25.1001 91.9 24.5501 92.6 23.3001 93.2C21.3001 94.15 20.4501 94.15 17.5501 93.25ZM48.1501 68.5C49.9001 68.5 50.5001 68.3 50.5001 67.75C50.5001 66.3 42.5502 44.9 41.7002 44.05C41.2002 43.55 40.0501 45.45 38.5001 49.25C36.9501 53.05 31.5001 68.25 31.5001 68.8C31.5001 68.95 34.7001 68.95 38.6501 68.8C42.5501 68.65 46.8001 68.55 48.1501 68.5Z" fill="#FEFFFE"/>
<path d="M85.5 92.45C83.4 91.6 81.5 89.5 77.9 84C69.95 71.95 57.95 44.45 58.7 40.25C59.5 36 67.75 33.65 70.65 36.9C71.05 37.35 72.1 40.1 72.9 43C73.75 45.9 74.85 49.6 75.35 51.25L76.3 54.25L79 54.5C80.5 54.65 85.75 54.7001 90.6 54.6001L99.45 54.45L100.5 51.1001C101.05 49.2501 102.1 45.3 102.85 42.3C104.35 36.4 105.15 35.3 108.2 35.3C113.15 35.4 116.5 37.75 116.5 41.25C116.5 44.95 107.95 66.05 103 74.5C98.3 82.5 97.05 84.6 95.1 87.5C91.95 92.25 88.9 93.8 85.5 92.45ZM90.25 81C92.45 75.85 97.5 61.7 97.5 60.65C97.5 60 96.35 59.95 88.4 60.25C83.35 60.45 79.1 60.7 78.9 60.8C78.6 61 81.1 68.55 84.15 76.25C86.6 82.6 88 85.7 88.25 85.45C88.35 85.3 89.25 83.3 90.25 81Z" fill="#FEFFFE"/>
</svg>
